<?xml version="1.0" encoding="UTF-8"?> <svg xmlns="http://www.w3.org/2000/svg" width="67" height="80" viewBox="0 0 67 80" fill="none"><path d="M3.32991 22.706C3.45093 22.7123 3.57515 22.7155 3.69936 22.7155C5.7059 22.7155 7.47993 21.9378 8.69022 20.5227C9.5215 19.5506 10.0566 18.3139 10.2509 16.9976C12.7192 17.2303 15.4424 17.0996 18.3853 16.5992C25.3222 15.4263 30.4054 9.85817 33.1509 6.03347V0.127491L31.9055 1.69562C31.8832 1.7243 31.8068 1.83267 31.689 2.02072C30.2716 4.33147 25.0833 11.9713 17.812 13.2016C14.4423 13.7721 11.4293 13.8135 8.85903 13.3259L6.46392 12.8701L6.83657 15.2829C7.00537 16.3857 6.71554 17.5363 6.07536 18.2789C5.51161 18.9355 4.71218 19.2669 3.69936 19.2669C3.17703 19.2669 2.70246 19.1745 2.2916 18.9928L-0.100318 17.941L-0.125798 20.5546C-0.262752 35.3657 3.7758 62.7123 32.3833 79.4486L33.1509 79.898V75.8916C8.20929 60.7649 3.61018 36.953 3.32991 22.706Z" fill="#163C68"></path><path d="M34.1223 79.4486C62.7298 62.7123 66.7715 35.3657 66.6314 20.5546L66.6059 17.941L64.214 18.9928C63.7999 19.1745 63.3286 19.2669 62.803 19.2669C61.7902 19.2669 60.9908 18.9355 60.427 18.2789C59.7869 17.5331 59.497 16.3857 59.6658 15.2829L60.0353 12.8701L57.6402 13.3259C55.0731 13.8135 52.0601 13.7721 48.6904 13.2016C41.4223 11.9713 36.2307 4.33466 34.8134 2.02391C34.6956 1.82948 34.616 1.72112 34.5937 1.69243L33.2432 0L33.1445 0.124303V6.03347C33.1764 5.98566 33.2146 5.93785 33.2496 5.89004C35.9728 9.71793 41.1006 15.4072 48.1171 16.596C51.06 17.0932 53.7832 17.2239 56.2515 16.9944C56.4426 18.3108 56.9809 19.5506 57.8122 20.5195C59.0225 21.9347 60.7965 22.7124 62.803 22.7124C62.9272 22.7124 63.0515 22.7092 63.1725 22.7028C62.8954 36.9689 58.2835 60.8287 33.2496 75.9522C33.2146 75.9299 33.1827 75.9076 33.1477 75.8885V79.8948L33.2496 79.9554L34.1223 79.4486Z" fill="#182F4E"></path><path d="M33.2528 9.99203C33.119 10.1578 28.3766 18.6327 20.876 19.9012C17.5508 20.4622 15.0029 20.3633 13.0696 19.9968C13.4231 22.2821 12.1045 24.8733 9.11701 24.8733C8.46409 24.8733 7.89398 24.749 7.40031 24.5291C7.32705 32.306 8.738 45.3386 17.2387 57.0837C17.2546 48.443 24.8285 38.3745 24.8285 38.3745C24.5132 42.1418 27.8224 45.0709 30.1633 43.5697C32.5043 42.0685 30.9596 39.1904 30.9596 39.1904C28.2715 34.7984 28.074 33.1729 28.074 33.1729C26.6344 25.9251 30.6698 21.3068 33.2528 19.1681V9.99203Z" fill="#C7221A"></path><path d="M29.1792 57.2621C29.1792 57.2621 24.4591 63.3371 28.3957 68.2199C29.5805 69.0837 30.8258 69.9219 32.1444 70.7315C31.4979 69.6574 30.5678 66.8685 33.2528 61.6861V51.6717C32.2431 53.3546 30.9182 55.2096 29.1792 57.2621Z" fill="#F7A71C"></path><path d="M37.406 31.3976C38.3137 27.2765 43.8747 27.3243 43.8747 27.3243C41.9032 33.1187 44.0403 37.4215 44.6041 38.4064C44.7378 38.639 44.862 38.8749 44.9831 39.1139C48.9547 47.0853 49.2446 51.0566 49.2541 51.9394C49.2573 52.1626 49.2605 52.3888 49.2669 52.6151C49.3083 54.4383 49.1809 56.0797 48.9229 57.5681C57.7389 45.6988 59.1849 32.4143 59.1116 24.5323C58.618 24.749 58.0478 24.8765 57.3949 24.8765C54.4074 24.8765 53.092 22.2853 53.4424 20C51.5091 20.3665 48.9611 20.4653 45.636 19.9044C38.1354 18.6359 33.3929 10.1641 33.2592 9.99522V19.1745C34.3866 18.2406 35.2402 17.7785 35.2402 17.7785C30.708 23.3976 37.406 31.3976 37.406 31.3976Z" fill="#AD191A"></path><path d="M34.9472 38.9896C35.3007 39.3944 38.3233 43.2478 33.2528 51.6749V61.6892C33.3674 61.4693 33.4789 61.2494 33.6063 61.0199C37.7468 53.5904 43.725 48.4685 34.9472 38.9896Z" fill="#F49918"></path></svg> 