<?xml version="1.0" encoding="UTF-8"?> <svg xmlns="http://www.w3.org/2000/svg" width="228" height="80" viewBox="0 0 228 80" fill="none"><g clip-path="url(#clip0_70_496)"><path d="M78.0559 49.9124V25.8263H84.8941L90.8723 38.0558L96.8154 25.8263H103.619V49.9124H96.5925V37.8709L92.7418 45.8008H88.9676L85.082 37.8709V49.9124H78.0559Z" fill="#C7221A"></path><path d="M116.585 50.2885C113.046 50.2885 110.438 49.5044 108.756 47.9331C107.074 46.3618 106.233 44.0701 106.233 41.0518C106.233 38.059 107.081 35.7737 108.775 34.1897C110.469 32.6056 113.072 31.8152 116.585 31.8152C120.123 31.8152 122.744 32.6056 124.451 34.1897C126.159 35.7737 127.012 38.0622 127.012 41.0518C127.012 44.0701 126.165 46.3618 124.471 47.9331C122.776 49.5012 120.149 50.2885 116.585 50.2885ZM116.585 45.1634C117.731 45.1634 118.559 44.8383 119.069 44.1912C119.578 43.5442 119.836 42.4956 119.836 41.0486C119.836 39.6271 119.582 38.5881 119.069 37.9251C118.559 37.2653 117.728 36.9339 116.585 36.9339C115.463 36.9339 114.654 37.2653 114.154 37.9251C113.654 38.5849 113.406 39.6271 113.406 41.0486C113.406 42.4956 113.654 43.541 114.154 44.1912C114.654 44.8414 115.463 45.1634 116.585 45.1634Z" fill="#C7221A"></path><path d="M137.214 50.2885C134.847 50.2885 133.127 49.6893 132.057 48.494C130.987 47.2988 130.449 45.6765 130.449 43.6335V37.3865H128.133V32.1881H130.449V28.561L137.475 26.8781V32.1881H141.548L141.287 37.3865H137.475V43.1076C137.475 43.8566 137.663 44.3857 138.035 44.698C138.408 45.0104 138.981 45.1665 139.755 45.1665C140.478 45.1665 141.214 45.0422 141.959 44.7936V49.4693C140.641 50.0144 139.058 50.2885 137.214 50.2885Z" fill="#C7221A"></path><path d="M149.358 50.2885C148.237 50.2885 147.195 50.0877 146.237 49.6893C145.278 49.2908 144.51 48.6661 143.937 47.8183C143.364 46.9705 143.077 45.8996 143.077 44.6024C143.077 42.7315 143.698 41.2813 144.947 40.2454C146.192 39.2096 148.074 38.6932 150.591 38.6932H155.186V38.3554C155.186 37.6574 154.9 37.1474 154.326 36.8223C153.753 36.4972 152.744 36.3347 151.301 36.3347C149.256 36.3347 147.24 36.647 145.246 37.2685V33.0422C146.144 32.6948 147.265 32.4016 148.609 32.1626C149.954 31.9267 151.326 31.8088 152.721 31.8088C155.537 31.8088 157.766 32.3825 159.41 33.5299C161.053 34.6773 161.875 36.4972 161.875 38.9897V49.9092H155.747L155.409 48.4877C154.785 49.0359 153.983 49.4725 152.998 49.7976C152.017 50.1259 150.804 50.2885 149.358 50.2885ZM151.75 46.1737C152.546 46.1737 153.224 46.0367 153.788 45.7626C154.349 45.4885 154.817 45.1506 155.19 44.7522V42.5466H151.788C150.243 42.5466 149.473 43.1586 149.473 44.3793C149.473 45.5745 150.231 46.1737 151.75 46.1737Z" fill="#C7221A"></path><path d="M165.057 49.9124V24.7076H172.083V33.2717C172.704 32.8478 173.484 32.5004 174.418 32.2231C175.351 31.949 176.354 31.812 177.427 31.812C179.87 31.812 181.651 32.3793 182.772 33.514C183.893 34.6486 184.453 36.4016 184.453 38.7697V49.9155H177.389V39.2956C177.389 38.4733 177.22 37.8869 176.886 37.5363C176.548 37.1889 175.946 37.0136 175.074 37.0136C174.551 37.0136 174.01 37.1379 173.449 37.3865C172.889 37.6351 172.433 37.9347 172.086 38.2853V49.9155H165.057V49.9124Z" fill="#C7221A"></path><path d="M194.916 50.2885C193.247 50.2885 191.795 50.008 190.562 49.447C189.329 48.8861 188.371 47.9713 187.683 46.6996C186.998 45.4279 186.654 43.7323 186.654 41.6128C186.654 39.4422 187.039 37.6351 187.813 36.1912C188.584 34.7442 189.619 33.6542 190.916 32.9179C192.212 32.1817 193.62 31.8152 195.139 31.8152C195.961 31.8152 196.776 31.9012 197.588 32.0765C198.397 32.2518 199.101 32.5004 199.7 32.8255V24.7076H206.726V49.9155H200.633L200.295 48.5323C199.598 49.0805 198.821 49.5108 197.961 49.8231C197.101 50.1323 196.088 50.2885 194.916 50.2885ZM196.935 45.2016C198.005 45.2016 198.929 44.8414 199.7 44.1179V37.8359C199.002 37.2144 198.079 36.902 196.935 36.902C196.012 36.902 195.266 37.3132 194.693 38.1355C194.12 38.9578 193.833 40.1307 193.833 41.651C193.833 43.1458 194.081 44.1148 194.581 44.5482C195.078 44.9817 195.862 45.2016 196.935 45.2016Z" fill="#C7221A"></path><path d="M215.434 50.2885C214.313 50.2885 213.271 50.0877 212.312 49.6893C211.354 49.2908 210.586 48.6661 210.013 47.8183C209.439 46.9705 209.153 45.8996 209.153 44.6024C209.153 42.7315 209.774 41.2813 211.022 40.2454C212.268 39.2096 214.15 38.6932 216.666 38.6932H221.262V38.3554C221.262 37.6574 220.975 37.1474 220.402 36.8223C219.829 36.4972 218.819 36.3347 217.376 36.3347C215.332 36.3347 213.316 36.647 211.322 37.2685V33.0422C212.22 32.6948 213.341 32.4016 214.685 32.1626C216.029 31.9267 217.402 31.8088 218.797 31.8088C221.612 31.8088 223.842 32.3825 225.485 33.5299C227.129 34.6773 227.951 36.4972 227.951 38.9897V49.9092H221.823L221.485 48.4877C220.861 49.0359 220.058 49.4725 219.074 49.7976C218.093 50.1259 216.88 50.2885 215.434 50.2885ZM217.826 46.1737C218.622 46.1737 219.3 46.0367 219.864 45.7626C220.424 45.4885 220.893 45.1506 221.265 44.7522V42.5466H217.864C216.319 42.5466 215.548 43.1586 215.548 44.3793C215.545 45.5745 216.306 46.1737 217.826 46.1737Z" fill="#C7221A"></path><path d="M117.425 72.7203C115.865 72.7203 114.572 72.4239 113.546 71.8311C112.517 71.2383 111.75 70.4064 111.24 69.3323C110.731 68.2582 110.476 67.0024 110.476 65.5618C110.476 63.9873 110.715 62.6136 111.196 61.4438C111.677 60.2741 112.425 59.3689 113.444 58.7315C114.463 58.094 115.785 57.7753 117.403 57.7753C118.244 57.7753 119.005 57.8359 119.687 57.957C120.368 58.0781 121.009 58.2406 121.611 58.451V60.0701C121.012 59.8438 120.375 59.6685 119.7 59.541C119.024 59.4136 118.311 59.3498 117.562 59.3498C116.257 59.3498 115.225 59.5984 114.457 60.0924C113.689 60.5865 113.145 61.3004 112.814 62.2311C112.482 63.1618 112.32 64.2709 112.32 65.5618C112.32 67.3466 112.731 68.7235 113.556 69.6924C114.381 70.6614 115.709 71.1458 117.537 71.1458C118.18 71.1458 118.805 71.0916 119.403 70.9865C120.002 70.8813 120.534 70.7379 120.999 70.5594V65.9442H117.129V64.6821H122.595V71.5697C122.158 71.8534 121.528 72.1179 120.693 72.357C119.859 72.596 118.776 72.7203 117.425 72.7203Z" fill="#163C68"></path><path d="M128.449 72.4972V58.0016H134.816C136.376 58.0016 137.51 58.4064 138.223 59.2159C138.937 60.0255 139.29 61.1219 139.29 62.502C139.29 63.5665 139.032 64.4526 138.513 65.157C137.997 65.8614 137.227 66.3363 136.207 66.5753C136.507 66.7538 136.736 66.961 136.892 67.1936C137.048 67.4263 137.211 67.7387 137.376 68.1275L139.265 72.494H137.376L135.532 68.2837C135.338 67.8343 135.102 67.5124 134.825 67.3148C134.548 67.1203 134.057 67.0215 133.35 67.0215H130.293V72.4908H128.449V72.4972ZM130.293 65.5841H134.296C135.271 65.5841 136.039 65.3418 136.602 64.8542C137.166 64.3665 137.446 63.5825 137.446 62.502C137.446 60.4749 136.478 59.4646 134.545 59.4646H130.293V65.5841Z" fill="#163C68"></path><path d="M151.033 72.7203C148.769 72.7203 147.09 72.1243 145.995 70.9323C144.899 69.7402 144.351 67.8438 144.351 65.2494C144.351 62.655 144.899 60.7586 145.995 59.5665C147.09 58.3745 148.769 57.7753 151.033 57.7753C153.314 57.7753 154.996 58.3713 156.085 59.5665C157.171 60.7586 157.715 62.655 157.715 65.2494C157.715 67.8438 157.171 69.7402 156.085 70.9323C154.996 72.1243 153.311 72.7203 151.033 72.7203ZM151.033 71.1458C152.129 71.1458 153.03 70.9578 153.744 70.5817C154.457 70.2056 154.989 69.5873 155.339 68.7235C155.693 67.8598 155.868 66.7028 155.868 65.2462C155.868 63.7897 155.693 62.6327 155.339 61.7689C154.986 60.9052 154.454 60.2869 153.744 59.9108C153.03 59.5347 152.129 59.3466 151.033 59.3466C149.938 59.3466 149.036 59.5347 148.323 59.9108C147.61 60.2869 147.078 60.9052 146.727 61.7689C146.374 62.6327 146.199 63.7928 146.199 65.2462C146.199 66.7028 146.374 67.8598 146.727 68.7235C147.081 69.5873 147.613 70.2056 148.323 70.5817C149.033 70.9578 149.938 71.1458 151.033 71.1458Z" fill="#163C68"></path><path d="M169.545 72.7203C167.563 72.7203 166.054 72.2486 165.012 71.302C163.971 70.3554 163.448 68.9849 163.448 67.1841V57.9984H165.293V67.2064C165.293 68.5259 165.665 69.514 166.407 70.1673C167.149 70.8207 168.194 71.1458 169.545 71.1458C170.879 71.1458 171.917 70.8207 172.659 70.1673C173.402 69.514 173.774 68.5291 173.774 67.2064V57.9984H175.618V67.1841C175.618 68.9849 175.096 70.3586 174.054 71.302C173.013 72.2486 171.51 72.7203 169.545 72.7203Z" fill="#163C68"></path><path d="M181.803 72.4972V58.0016H187.922C189.54 58.0016 190.734 58.4383 191.499 59.3084C192.263 60.1785 192.645 61.3036 192.645 62.6837C192.645 64.0956 192.215 65.208 191.352 66.0271C190.489 66.8462 189.317 67.2542 187.833 67.2542H183.648V72.5004H181.803V72.4972ZM183.648 65.8104H187.54C188.619 65.8104 189.431 65.5299 189.979 64.9657C190.527 64.4016 190.801 63.6399 190.801 62.6805C190.801 61.6606 190.543 60.8669 190.024 60.306C189.508 59.7418 188.715 59.4614 187.651 59.4614H183.648V65.8104Z" fill="#163C68"></path><path d="M3.32984 22.706C3.45087 22.7123 3.57508 22.7155 3.69929 22.7155C5.70583 22.7155 7.47986 21.9378 8.69015 20.5227C9.52143 19.5506 10.0565 18.3139 10.2508 16.9976C12.7192 17.2303 15.4423 17.0996 18.3852 16.5992C25.3221 15.4263 30.4053 9.85817 33.1508 6.03347V0.127491L31.9055 1.69562C31.8832 1.7243 31.8067 1.83267 31.6889 2.02072C30.2716 4.33147 25.0832 11.9713 17.8119 13.2016C14.4422 13.7721 11.4292 13.8135 8.85896 13.3259L6.46385 12.8701L6.8365 15.2829C7.0053 16.3857 6.71547 17.5363 6.07529 18.2789C5.51155 18.9355 4.71212 19.2669 3.69929 19.2669C3.17696 19.2669 2.70239 19.1745 2.29153 18.9928L-0.100387 17.941L-0.125866 20.5546C-0.26282 35.3657 3.77573 62.7123 32.3832 79.4486L33.1508 79.898V75.8916C8.20922 60.7649 3.61011 36.953 3.32984 22.706Z" fill="#163C68"></path><path d="M34.1223 79.4486C62.7298 62.7123 66.7715 35.3657 66.6314 20.5546L66.6059 17.941L64.214 18.9928C63.8 19.1745 63.3286 19.2669 62.8031 19.2669C61.7902 19.2669 60.9908 18.9355 60.4271 18.2789C59.7869 17.5331 59.4971 16.3857 59.6659 15.2829L60.0353 12.8701L57.6402 13.3259C55.0731 13.8135 52.0601 13.7721 48.6904 13.2016C41.4223 11.9713 36.2308 4.33466 34.8135 2.02391C34.6956 1.82948 34.616 1.72112 34.5937 1.69243L33.2433 0L33.1445 0.124303V6.03347C33.1764 5.98566 33.2146 5.93785 33.2496 5.89004C35.9728 9.71793 41.1006 15.4072 48.1171 16.596C51.06 17.0932 53.7832 17.2239 56.2516 16.9944C56.4427 18.3108 56.9809 19.5506 57.8122 20.5195C59.0225 21.9347 60.7965 22.7124 62.8031 22.7124C62.9273 22.7124 63.0515 22.7092 63.1725 22.7028C62.8954 36.9689 58.2836 60.8287 33.2496 75.9522C33.2146 75.9299 33.1828 75.9076 33.1477 75.8885V79.8948L33.2496 79.9554L34.1223 79.4486Z" fill="#182F4E"></path><path d="M33.2528 9.99203C33.119 10.1578 28.3766 18.6327 20.876 19.9012C17.5509 20.4622 15.0029 20.3633 13.0696 19.9968C13.4231 22.2821 12.1046 24.8733 9.11704 24.8733C8.46412 24.8733 7.89401 24.749 7.40034 24.5291C7.32708 32.306 8.73803 45.3386 17.2387 57.0837C17.2547 48.443 24.8285 38.3745 24.8285 38.3745C24.5132 42.1418 27.8224 45.0709 30.1634 43.5697C32.5043 42.0685 30.9596 39.1904 30.9596 39.1904C28.2715 34.7984 28.074 33.1729 28.074 33.1729C26.6344 25.9251 30.6698 21.3068 33.2528 19.1681V9.99203Z" fill="#C7221A"></path><path d="M29.1792 57.2622C29.1792 57.2622 24.459 63.3371 28.3956 68.2199C29.5805 69.0837 30.8258 69.9219 32.1444 70.7315C31.4978 69.6574 30.5678 66.8685 33.2527 61.6861V51.6717C32.2431 53.3546 30.9181 55.2096 29.1792 57.2622Z" fill="#F7A71C"></path><path d="M37.4061 31.3976C38.3138 27.2765 43.8748 27.3243 43.8748 27.3243C41.9033 33.1187 44.0404 37.4215 44.6042 38.4064C44.7379 38.639 44.8622 38.8749 44.9832 39.1139C48.9549 47.0853 49.2447 51.0566 49.2542 51.9394C49.2574 52.1626 49.2606 52.3888 49.267 52.6151C49.3084 54.4383 49.181 56.0797 48.923 57.5681C57.739 45.6988 59.185 32.4143 59.1118 24.5323C58.6181 24.749 58.048 24.8765 57.3951 24.8765C54.4075 24.8765 53.0921 22.2853 53.4425 20C51.5092 20.3665 48.9612 20.4653 45.6361 19.9044C38.1355 18.6359 33.393 10.1641 33.2593 9.99522V19.1745C34.3868 18.2406 35.2403 17.7785 35.2403 17.7785C30.7081 23.3976 37.4061 31.3976 37.4061 31.3976Z" fill="#AD191A"></path><path d="M34.9473 38.9896C35.3009 39.3944 38.3234 43.2478 33.2529 51.6749V61.6892C33.3676 61.4693 33.4791 61.2494 33.6065 61.0199C37.7469 53.5904 43.7251 48.4685 34.9473 38.9896Z" fill="#F49918"></path></g><defs><clipPath id="clip0_70_496"><rect width="228" height="80" fill="white"></rect></clipPath></defs></svg> 