<?xml version="1.0" encoding="UTF-8"?> <svg xmlns="http://www.w3.org/2000/svg" width="106" height="96" viewBox="0 0 106 96" fill="none"><g clip-path="url(#clip0_27_3405)"><path d="M29.8015 33.9148V26.3942H10.1725V33.9148H14.6758V50.0019H10.1725V57.5225H29.8015V50.0019H25.2981V33.9148H29.8015Z" fill="#00539F"></path><path d="M51.4632 38.3382C50.25 37.9853 44.0074 36.1985 42.9265 35.8455C41.8456 35.4926 40.9632 34.9853 40.9632 34.3455C40.9632 33.7058 41.9559 33.022 43.9632 33.022C50.2941 33.022 53.3354 36.9264 53.3354 36.9264C53.3354 36.9264 53.6781 37.383 53.793 37.5467H59.901V26.8944H53.3439V28.8324C52.8431 28.4865 49.1456 26.0735 43.4118 26.0735C35.8456 26.0735 31.6324 30 31.6324 35.8676C31.6324 41.7353 36.9485 44.1617 38.4265 44.7794C39.9044 45.397 45.6838 47.0294 48.1544 47.8014C50.625 48.5735 51.5294 49.125 51.5294 49.522C51.5294 49.9191 50.4485 50.9558 47.3603 50.9558C41.9809 50.9558 39.2107 47.7836 38.7245 47.1693V47.1645C38.5699 46.9574 38.3885 46.7122 38.3269 46.62C38.2557 46.5132 38.0903 46.2762 37.9756 46.1124H31.8676V57.4879H38.7245V55.1124C39.5224 55.6434 43.6064 58.1911 48.5074 58.1911C53.9779 58.1911 60.9485 55.8088 60.9485 48.375C60.9485 40.9411 52.6765 38.6911 51.4632 38.3382Z" fill="#00539F"></path><path d="M78.3591 25.969C69.2395 25.969 61.7599 30.5286 61.7599 42.1681C61.7599 53.8076 69.8795 58.1673 78.399 58.1673C86.9185 58.1673 94.9581 53.8475 94.9581 42.2883C94.9581 30.7291 86.9188 25.969 78.3591 25.969ZM78.4392 50.4077C75.3192 50.4077 73.3193 49.6877 73.3193 42.1282C73.3193 34.5686 74.7994 33.7686 78.5591 33.7686C80.8389 33.7686 83.5989 33.9285 83.5989 41.8882C83.5989 49.8479 81.5592 50.4077 78.4392 50.4077Z" fill="#00539F"></path><path d="M23.2518 22.9613C25.3018 19.9341 27.8229 17.2507 30.7129 15.0222C31.8815 15.8862 33.1237 16.6699 34.4296 17.3684C32.2417 19.8072 30.2815 22.5091 29.9568 22.9613H31.2695C32.0575 21.8993 33.6874 19.7629 35.406 17.8689C37.2845 18.7923 39.2809 19.5476 41.364 20.1229C40.8095 21.2993 40.3904 22.3279 40.1444 22.9613H41.2849C41.547 22.309 41.931 21.3993 42.4101 20.3941C45.0674 21.0434 47.8518 21.4073 50.7002 21.4627V22.9614H51.759V21.4678C54.5866 21.4471 57.3556 21.1249 60.0035 20.5194C60.4549 21.4743 60.8183 22.3364 61.0694 22.9613H62.2099C61.9735 22.353 61.5778 21.3806 61.0553 20.262C63.1756 19.7103 65.2101 18.9748 67.1262 18.0658C68.7791 19.9096 70.3242 21.9361 71.085 22.9613H72.3976C72.0829 22.5231 70.2242 19.9602 68.112 17.578C69.5642 16.8275 70.941 15.9736 72.228 15.0222C75.1181 17.2507 77.6393 19.9341 79.6892 22.9613H80.9628C74.7002 13.2958 63.8201 6.88708 51.4703 6.88708C39.1205 6.88708 28.2404 13.2958 21.9778 22.9613H23.2518ZM41.8364 19.1546C39.855 18.6194 37.9539 17.9177 36.1617 17.0594C36.4052 16.8063 36.6485 16.5612 36.8891 16.3291C39.3432 13.9625 43.3798 11.3638 44.2647 10.8044C44.9827 11.1988 45.7662 11.5323 46.5997 11.797C45.9524 12.6458 44.6815 14.3689 43.2974 16.5545C42.7587 17.4051 42.2679 18.2991 41.8364 19.1546ZM50.7002 20.4035C48.0185 20.3499 45.3965 20.016 42.8903 19.4216C43.2822 18.6554 43.7195 17.8669 44.1919 17.1211C45.7865 14.6034 47.2251 12.7131 47.7044 12.0981C48.6607 12.3227 49.6657 12.4648 50.7002 12.5112V20.4035ZM51.759 20.4088V12.5232C52.7795 12.5059 53.778 12.3979 54.7336 12.2057C55.2814 12.9143 56.6522 14.7361 58.1626 17.1211C58.6595 17.9059 59.1178 18.7378 59.5253 19.5416C57.0279 20.094 54.4211 20.389 51.759 20.4088ZM60.5868 19.2909C60.1391 18.3944 59.6243 17.4503 59.0569 16.5545C57.7444 14.4817 56.5331 12.8246 55.8595 11.9348C56.7459 11.6858 57.5827 11.3622 58.3511 10.9706C59.5932 11.7668 63.201 14.1457 65.4653 16.3291C65.7658 16.6191 66.0704 16.9288 66.3746 17.25C64.545 18.0947 62.6056 18.7786 60.5868 19.2909ZM71.3414 14.3603C70.0992 15.2569 68.772 16.0602 67.3745 16.7664C66.984 16.3475 66.5901 15.9428 66.2003 15.567C64.0825 13.5247 60.9291 11.3821 59.3841 10.3761C59.9089 10.0358 60.3889 9.65961 60.8169 9.25003C64.6412 10.3427 68.1916 12.09 71.3414 14.3603ZM51.4706 7.94591C54.2666 7.94591 56.9841 8.28703 59.5862 8.9255C57.6115 10.5294 54.6526 11.4704 51.4706 11.4704C48.2742 11.4704 45.3235 10.5324 43.3514 8.92638C45.9544 8.28738 48.6731 7.94591 51.4706 7.94591ZM42.1239 9.25003C42.4722 9.58391 42.8536 9.89626 43.2667 10.1843C41.8669 11.085 38.4192 13.3828 36.1542 15.5668C35.8281 15.8813 35.4994 16.2162 35.1718 16.5624C33.9191 15.9065 32.7244 15.1719 31.6001 14.3603C34.7494 12.09 38.2996 10.3429 42.1239 9.25003Z" fill="#00539F"></path><path d="M79.691 61.0496C77.6845 64.0131 75.2263 66.6467 72.4128 68.847C71.0728 67.8393 69.6346 66.9386 68.1136 66.1519C69.9459 64.0851 71.5876 61.8824 72.1954 61.0498H70.8768C70.064 62.1351 68.6411 63.9762 67.1277 65.6645C65.2116 64.7551 63.1772 64.0191 61.0566 63.4676C61.505 62.5074 61.8591 61.6565 62.1002 61.0498H60.9563C60.7138 61.6413 60.3914 62.3919 60.0041 63.2112C57.3577 62.6066 54.5891 62.2846 51.7592 62.2641V61.0498H50.7004V62.2688C47.8497 62.3241 45.0655 62.6876 42.4098 63.336C41.9961 62.4683 41.6533 61.6711 41.3986 61.0498H40.2546C40.5071 61.6858 40.884 62.59 41.3633 63.6068C39.2797 64.1823 37.2826 64.9366 35.4043 65.8606C33.8259 64.1207 32.3229 62.1773 31.4781 61.0496H30.1596C30.7874 61.9099 32.5216 64.2361 34.4296 66.3626C33.0554 67.0985 31.7506 67.9277 30.5286 68.8468C27.7149 66.6466 25.2567 64.0129 23.2504 61.0494H21.9787C28.2415 70.7149 39.1213 77.1236 51.4708 77.1236C63.8203 77.1236 74.7002 70.7151 80.963 61.0494L79.691 61.0496ZM60.5873 64.4393C62.6068 64.9514 64.5463 65.635 66.3761 66.4801C66.0713 66.8017 65.7666 67.1119 65.4655 67.4024C63.2083 69.5788 59.612 71.9521 58.3604 72.7547C57.5921 72.3616 56.7542 72.0379 55.865 71.7889C56.5398 70.8976 57.7479 69.2437 59.057 67.1767C59.6247 66.2807 60.1394 65.3361 60.5873 64.4393ZM51.759 63.3227C54.4232 63.3425 57.03 63.6367 59.5258 64.1883C59.1182 64.9927 58.6599 65.8247 58.1624 66.6102C56.6541 68.9918 55.2854 70.8118 54.7361 71.5224C53.7831 71.3326 52.7847 71.2254 51.7588 71.2085V63.3227H51.759ZM50.7002 63.328V71.2194C49.6618 71.2655 48.6558 71.4058 47.7007 71.6288C47.2181 71.0093 45.7841 69.1242 44.192 66.6102C43.7192 65.8639 43.2816 65.0749 42.8894 64.308C45.3943 63.7143 48.0163 63.3815 50.7002 63.328ZM41.8359 64.5758C42.2676 65.4319 42.7587 66.3259 43.2974 67.1768C44.6804 69.3607 45.9505 71.0827 46.5983 71.9322C45.7636 72.1967 44.981 72.5306 44.2633 72.9261C43.3751 72.3642 39.342 69.7674 36.8893 67.4024C36.6484 67.1701 36.405 66.9247 36.1611 66.6714C37.953 65.8127 39.854 65.1109 41.8359 64.5758ZM31.4083 69.5107C32.5883 68.6431 33.8466 67.861 35.1703 67.1677C35.4981 67.5143 35.8276 67.8497 36.1541 68.1646C38.4186 70.348 41.8652 72.6453 43.2655 73.5464C42.7666 73.8956 42.3118 74.2796 41.9077 74.6964C38.0886 73.5773 34.5459 71.8055 31.4083 69.5107ZM51.4707 76.065C48.5831 76.065 45.7786 75.7023 43.0994 75.0227C45.0558 73.3036 48.1624 72.2611 51.4707 72.2611C54.7749 72.2611 57.8845 73.3043 59.841 75.0229C57.162 75.7025 54.3579 76.065 51.4707 76.065ZM61.0329 74.6964C60.5526 74.2014 60.0036 73.75 59.391 73.3507C60.9387 72.3429 64.0857 70.2037 66.2003 68.1644C66.5903 67.7883 66.9842 67.3835 67.3751 66.9642C68.8438 67.7071 70.2358 68.557 71.5329 69.5105C68.3951 71.8057 64.8523 73.5774 61.0329 74.6964Z" fill="#00539F"></path><path d="M12.192 88.3532C12.2391 89.2292 12.5771 89.8347 13.2062 90.1697C13.5295 90.3461 13.8939 90.4342 14.2996 90.4342C15.0579 90.4342 15.7045 90.1183 16.2395 89.4864C16.7744 88.8544 17.1537 87.5713 17.3771 85.6374C17.0243 86.1957 16.5879 86.5882 16.0677 86.8144C15.5474 87.0408 14.9875 87.154 14.3878 87.154C13.1709 87.154 12.2082 86.7752 11.4999 86.0178C10.7914 85.2602 10.4374 84.2854 10.4374 83.0932C10.4374 81.9482 10.7871 80.9409 11.4867 80.0718C12.1862 79.2027 13.218 78.7681 14.5818 78.7681C16.4217 78.7681 17.6915 79.5964 18.3911 81.2531C18.7791 82.1637 18.9731 83.3034 18.9731 84.6722C18.9731 86.2172 18.7408 87.586 18.2765 88.7787C17.5062 90.7644 16.2012 91.7572 14.3614 91.7572C13.1268 91.7572 12.189 91.4337 11.5484 90.7871C10.9077 90.1405 10.5872 89.3293 10.5872 88.3534H12.192V88.3532ZM16.3234 85.1401C16.8436 84.7262 17.1037 84.0029 17.1037 82.9698C17.1037 82.0425 16.8701 81.3514 16.4026 80.8965C15.9353 80.4417 15.3401 80.2142 14.6171 80.2142C13.8411 80.2142 13.2252 80.474 12.7696 80.9934C12.314 81.5127 12.0861 82.2069 12.0861 83.0755C12.0861 83.8972 12.2859 84.5503 12.6858 85.0345C13.0855 85.5188 13.7232 85.7607 14.5992 85.7607C15.2284 85.7607 15.8031 85.5539 16.3234 85.1401Z" fill="#00539F"></path><path d="M28.2672 80.805C28.8316 81.8455 29.1138 83.2712 29.1138 85.0818C29.1138 86.7983 28.8581 88.2178 28.3467 89.3409C27.606 90.9515 26.3947 91.7569 24.7137 91.7569C23.1969 91.7569 22.0682 91.0987 21.3275 89.7817C20.7102 88.6825 20.4016 87.2068 20.4016 85.3551C20.4016 83.9208 20.5869 82.6892 20.9571 81.6602C21.6507 79.7439 22.9059 78.7856 24.7223 78.7856C26.3566 78.7856 27.5382 79.4589 28.2672 80.805ZM26.67 89.2172C27.1587 88.4883 27.4031 87.1304 27.4031 85.1434C27.4031 83.709 27.2262 82.5288 26.8731 81.603C26.5198 80.6771 25.8337 80.2142 24.8151 80.2142C23.8788 80.2142 23.1942 80.6536 22.7615 81.5326C22.3287 82.4114 22.1123 83.706 22.1123 85.4169C22.1123 86.7042 22.2507 87.7391 22.5274 88.5208C22.9512 89.7143 23.6757 90.3109 24.7001 90.3109C25.5245 90.3108 26.181 89.9462 26.67 89.2172Z" fill="#00539F"></path><path d="M38.3109 80.805C38.8752 81.8455 39.1574 83.2712 39.1574 85.0818C39.1574 86.7983 38.9017 88.2178 38.3903 89.3409C37.6496 90.9515 36.4384 91.7569 34.7573 91.7569C33.2405 91.7569 32.1118 91.0987 31.3712 89.7817C30.7539 88.6825 30.4452 87.2068 30.4452 85.3551C30.4452 83.9208 30.6305 82.6892 31.0008 81.6602C31.6943 79.7439 32.9495 78.7856 34.7659 78.7856C36.4004 78.7856 37.5819 79.4589 38.3109 80.805ZM36.7136 89.2172C37.2023 88.4883 37.4467 87.1304 37.4467 85.1434C37.4467 83.709 37.2699 82.5288 36.9168 81.603C36.5635 80.6771 35.8774 80.2142 34.8588 80.2142C33.9224 80.2142 33.2379 80.6536 32.8052 81.5326C32.3723 82.4114 32.1559 83.706 32.1559 85.4169C32.1559 86.7042 32.2943 87.7391 32.571 88.5208C32.9949 89.7143 33.7193 90.3109 34.7437 90.3109C35.5682 90.3108 36.2246 89.9462 36.7136 89.2172Z" fill="#00539F"></path><path d="M41.6529 82.4716V81.2546C42.7992 81.1429 43.5986 80.9564 44.0513 80.6947C44.5039 80.4331 44.8419 79.8144 45.0655 78.8384H46.3175V91.4128H44.6245V82.4714L41.6529 82.4716Z" fill="#00539F"></path><path d="M51.9701 82.0923H53.8131V84.0146H51.9701V82.0923ZM51.9701 89.4905H53.8131V91.4129H51.9701V89.4905Z" fill="#00539F"></path><path d="M56.2246 88.5737C56.6155 87.7685 57.3782 87.0365 58.5129 86.3781L60.2059 85.3993C60.9644 84.9583 61.4963 84.5818 61.8021 84.2698C62.2839 83.7808 62.5251 83.2214 62.5251 82.591C62.5251 81.8548 62.3047 81.2701 61.8639 80.8372C61.4229 80.4043 60.8351 80.1878 60.1002 80.1878C59.0127 80.1878 58.2602 80.6008 57.8428 81.4261C57.6194 81.8684 57.4959 82.4814 57.4724 83.2655H55.8588C55.8764 82.1662 56.0792 81.2696 56.4671 80.5761C57.1548 79.3533 58.3687 78.7418 60.1089 78.7418C61.5551 78.7418 62.6118 79.1329 63.279 79.9146C63.9461 80.6966 64.2799 81.5666 64.2799 82.5248C64.2799 83.5358 63.9242 84.4002 63.213 85.1172C62.8013 85.5347 62.0635 86.0401 60.9995 86.6339L59.7914 87.3042C59.2152 87.6216 58.7628 87.9245 58.4337 88.2123C57.8457 88.7237 57.4752 89.2911 57.3224 89.9142H64.2182V91.4133H55.5501C55.6087 90.3257 55.8337 89.3791 56.2246 88.5737Z" fill="#00539F"></path><path d="M73.4594 80.805C74.0238 81.8455 74.306 83.2712 74.306 85.0818C74.306 86.7983 74.0504 88.2178 73.5388 89.3409C72.7982 90.9515 71.5869 91.7569 69.9058 91.7569C68.3891 91.7569 67.2604 91.0987 66.5197 89.7817C65.9026 88.6825 65.594 87.2068 65.594 85.3551C65.594 83.9208 65.7791 82.6892 66.1493 81.6602C66.843 79.7439 68.0981 78.7856 69.9147 78.7856C71.5488 78.7856 72.7304 79.4589 73.4594 80.805ZM71.8622 89.2172C72.351 88.4883 72.5953 87.1304 72.5953 85.1434C72.5953 83.709 72.4184 82.5288 72.0651 81.603C71.7118 80.6771 71.0259 80.2142 70.0073 80.2142C69.071 80.2142 68.3864 80.6536 67.9537 81.5326C67.5207 82.4114 67.3043 83.706 67.3043 85.4169C67.3043 86.7042 67.4427 87.7391 67.7195 88.5208C68.1434 89.7143 68.8678 90.3109 69.8923 90.3109C70.7169 90.3108 71.3732 89.9462 71.8622 89.2172Z" fill="#00539F"></path><path d="M76.8014 82.4716V81.2546C77.9478 81.1429 78.747 80.9564 79.2 80.6947C79.6525 80.4331 79.9904 79.8144 80.214 78.8384H81.4662V91.4128H79.773V82.4714L76.8014 82.4716Z" fill="#00539F"></path><path d="M87.3477 88.1944C87.4535 89.0997 87.8737 89.7258 88.6087 90.0728C88.985 90.2491 89.4201 90.3373 89.9139 90.3373C90.8545 90.3373 91.551 90.0375 92.0038 89.4377C92.4563 88.8382 92.6829 88.174 92.6829 87.445C92.6829 86.5631 92.414 85.8813 91.8761 85.3991C91.3382 84.917 90.693 84.676 89.9405 84.676C89.3937 84.676 88.925 84.7818 88.5341 84.9934C88.143 85.205 87.8095 85.499 87.5331 85.8753L86.1575 85.7958L87.119 78.9973H93.6793V80.5315H88.3091L87.771 84.0412C88.065 83.8178 88.3442 83.6503 88.6087 83.5384C89.079 83.3445 89.6229 83.2476 90.24 83.2476C91.398 83.2476 92.3799 83.6208 93.1851 84.3675C93.9906 85.114 94.3933 86.0605 94.3933 87.2069C94.3933 88.4004 94.0243 89.4527 93.2866 90.3638C92.5488 91.2751 91.3715 91.7305 89.7549 91.7305C88.7261 91.7305 87.8164 91.4408 87.0258 90.862C86.2352 90.2831 85.7926 89.3939 85.6985 88.1946L87.3477 88.1944Z" fill="#00539F"></path></g><defs><clipPath id="clip0_27_3405"><rect width="105.049" height="96" fill="white"></rect></clipPath></defs></svg> 