<?xml version="1.0" encoding="UTF-8"?> <svg xmlns="http://www.w3.org/2000/svg" width="283" height="262" viewBox="0 0 283 262" fill="none"><path d="M85.224 43.047C85.4516 43.0589 85.6852 43.0649 85.9188 43.0649C89.6925 43.0649 93.0289 41.6103 95.3051 38.9636C96.8685 37.1455 97.8748 34.8326 98.2402 32.3707C102.882 32.8058 108.004 32.5614 113.539 31.6255C126.585 29.4318 136.145 19.0178 141.308 11.8645V0.818604L138.966 3.75146C138.924 3.80511 138.78 4.00779 138.559 4.35949C135.893 8.68128 126.136 22.97 112.46 25.271C106.123 26.338 100.457 26.4155 95.6226 25.5035L91.1181 24.651L91.819 29.1636C92.1364 31.2261 91.5914 33.3781 90.3874 34.767C89.3271 35.995 87.8237 36.615 85.9188 36.615C84.9365 36.615 84.044 36.4421 83.2713 36.1023L78.7728 34.1351L78.7249 39.0232C78.4673 66.7244 86.0626 117.871 139.865 149.172L141.308 150.013V142.52C94.4007 114.228 85.7511 69.693 85.224 43.047Z" fill="#F5F5F5"></path><path d="M143.135 149.172C196.937 117.87 204.538 66.7243 204.275 39.0232L204.227 34.1351L199.728 36.1022C198.95 36.442 198.063 36.6149 197.075 36.6149C195.17 36.6149 193.667 35.9949 192.606 34.7669C191.402 33.372 190.857 31.226 191.175 29.1635L191.87 24.651L187.365 25.5034C182.537 26.4154 176.871 26.338 170.533 25.2709C156.864 22.9699 147.1 8.68716 144.435 4.36537C144.213 4.00175 144.064 3.79907 144.022 3.74542L141.482 0.580078L141.296 0.81256V11.8644C141.356 11.775 141.428 11.6856 141.494 11.5962C146.615 18.7554 156.259 29.396 169.455 31.6195C174.99 32.5494 180.111 32.7938 184.754 32.3646C185.113 34.8265 186.125 37.1454 187.689 38.9576C189.965 41.6043 193.301 43.0588 197.075 43.0588C197.309 43.0588 197.542 43.0529 197.77 43.0409C197.249 69.7228 188.575 114.347 141.494 142.633C141.428 142.591 141.368 142.549 141.302 142.514V150.007L141.494 150.12L143.135 149.172Z" fill="#F5F5F5"></path><path d="M141.5 19.2683C141.248 19.5783 132.329 35.4288 118.223 37.8013C111.969 38.8505 107.177 38.6657 103.541 37.9802C104.206 42.2543 101.726 47.1006 96.1078 47.1006C94.8799 47.1006 93.8077 46.8682 92.8792 46.4568C92.7414 61.0019 95.395 85.3768 111.382 107.343C111.412 91.1829 125.656 72.3518 125.656 72.3518C125.063 79.3978 131.287 84.8761 135.69 82.0684C140.092 79.2607 137.187 73.8779 137.187 73.8779C132.132 65.6635 131.76 62.6233 131.76 62.6233C129.053 49.0678 136.642 40.4302 141.5 36.4303V19.2683Z" fill="#F5F5F5"></path><path d="M133.839 107.677C133.839 107.677 124.962 119.039 132.365 128.171C134.593 129.787 136.935 131.355 139.415 132.869C138.199 130.86 136.45 125.644 141.5 115.951V97.2214C139.601 100.369 137.109 103.838 133.839 107.677Z" fill="#F5F5F5"></path><path d="M149.311 59.3031C151.018 51.5954 161.476 51.6849 161.476 51.6849C157.769 62.5221 161.788 70.5696 162.848 72.4116C163.1 72.8467 163.333 73.2879 163.561 73.7349C171.03 88.6436 171.576 96.0711 171.593 97.7224C171.599 98.1396 171.605 98.5629 171.617 98.9861C171.695 102.396 171.456 105.466 170.971 108.25C187.551 86.0505 190.27 61.2047 190.132 46.4629C189.204 46.8683 188.132 47.1067 186.904 47.1067C181.285 47.1067 178.811 42.2604 179.47 37.9863C175.834 38.6718 171.042 38.8566 164.789 37.8074C150.682 35.4349 141.763 19.5904 141.512 19.2744V36.4424C143.632 34.6958 145.238 33.8314 145.238 33.8314C136.714 44.3408 149.311 59.3031 149.311 59.3031Z" fill="#F5F5F5"></path><path d="M144.687 73.5027C145.351 74.2597 151.036 81.4667 141.5 97.2278V115.958C141.716 115.546 141.925 115.135 142.165 114.706C149.952 100.81 161.195 91.231 144.687 73.5027Z" fill="#F5F5F5"></path><path d="M0.546837 219.156V174.108H13.4073L24.6505 196.981L35.8278 174.108H48.6224V219.156H35.4085V196.635L28.1666 211.466H21.0685L13.7607 196.635V219.156H0.546837Z" fill="#F5F5F5"></path><path d="M73.0076 219.86C66.3527 219.86 61.4469 218.393 58.2842 215.454C55.1215 212.515 53.5401 208.229 53.5401 202.584C53.5401 196.987 55.1335 192.713 58.3201 189.75C61.5068 186.787 66.4006 185.309 73.0076 185.309C79.6624 185.309 84.5922 186.787 87.8028 189.75C91.0134 192.713 92.6187 196.993 92.6187 202.584C92.6187 208.229 91.0254 212.515 87.8387 215.454C84.6521 218.387 79.7104 219.86 73.0076 219.86ZM73.0076 210.274C75.164 210.274 76.7213 209.666 77.6797 208.456C78.6381 207.246 79.1233 205.285 79.1233 202.578C79.1233 199.92 78.6441 197.976 77.6797 196.736C76.7213 195.503 75.158 194.883 73.0076 194.883C70.8991 194.883 69.3776 195.503 68.4372 196.736C67.4968 197.97 67.0296 199.92 67.0296 202.578C67.0296 205.285 67.4968 207.24 68.4372 208.456C69.3776 209.672 70.8991 210.274 73.0076 210.274Z" fill="#F5F5F5"></path><path d="M111.805 219.86C107.354 219.86 104.12 218.739 102.107 216.504C100.094 214.268 99.082 211.234 99.082 207.413V195.729H94.7272V186.007H99.082V179.223L112.296 176.075V186.007H119.957L119.466 195.729H112.296V206.429C112.296 207.83 112.649 208.82 113.35 209.404C114.051 209.988 115.129 210.28 116.585 210.28C117.944 210.28 119.328 210.048 120.73 209.583V218.328C118.25 219.347 115.273 219.86 111.805 219.86Z" fill="#F5F5F5"></path><path d="M134.644 219.86C132.536 219.86 130.577 219.484 128.774 218.739C126.971 217.994 125.528 216.826 124.449 215.24C123.371 213.654 122.832 211.651 122.832 209.225C122.832 205.726 124 203.014 126.348 201.076C128.69 199.139 132.23 198.173 136.963 198.173H145.606V197.541C145.606 196.236 145.067 195.282 143.989 194.674C142.911 194.066 141.012 193.762 138.298 193.762C134.453 193.762 130.661 194.346 126.911 195.509V187.604C128.601 186.955 130.709 186.406 133.237 185.959C135.765 185.518 138.346 185.297 140.97 185.297C146.265 185.297 150.458 186.37 153.549 188.516C156.64 190.662 158.185 194.066 158.185 198.728V219.15H146.66L146.025 216.492C144.851 217.517 143.342 218.334 141.491 218.942C139.646 219.556 137.364 219.86 134.644 219.86ZM139.143 212.164C140.64 212.164 141.916 211.908 142.976 211.395C144.031 210.882 144.911 210.25 145.612 209.505V205.38H139.215C136.31 205.38 134.86 206.525 134.86 208.808C134.86 211.043 136.286 212.164 139.143 212.164Z" fill="#F5F5F5"></path><path d="M164.169 219.156V172.016H177.383V188.034C178.551 187.241 180.019 186.591 181.774 186.072C183.529 185.56 185.416 185.303 187.434 185.303C192.028 185.303 195.377 186.364 197.485 188.487C199.594 190.609 200.648 193.887 200.648 198.316V219.162H187.362V199.3C187.362 197.762 187.045 196.665 186.416 196.01C185.781 195.36 184.649 195.032 183.008 195.032C182.025 195.032 181.007 195.264 179.953 195.729C178.898 196.194 178.042 196.755 177.389 197.41V219.162H164.169V219.156Z" fill="#F5F5F5"></path><path d="M220.325 219.86C217.186 219.86 214.455 219.335 212.137 218.286C209.819 217.237 208.016 215.526 206.722 213.148C205.434 210.769 204.787 207.598 204.787 203.634C204.787 199.574 205.512 196.194 206.967 193.494C208.417 190.788 210.364 188.749 212.802 187.372C215.24 185.995 217.887 185.309 220.744 185.309C222.29 185.309 223.823 185.47 225.351 185.798C226.872 186.126 228.196 186.591 229.322 187.199V172.016H242.536V219.162H231.077L230.442 216.575C229.13 217.601 227.669 218.405 226.051 218.99C224.434 219.568 222.529 219.86 220.325 219.86ZM224.123 210.346C226.135 210.346 227.872 209.672 229.322 208.319V196.57C228.01 195.407 226.273 194.823 224.123 194.823C222.386 194.823 220.984 195.592 219.906 197.13C218.828 198.668 218.289 200.862 218.289 203.705C218.289 206.501 218.756 208.313 219.696 209.124C220.631 209.935 222.104 210.346 224.123 210.346Z" fill="#F5F5F5"></path><path d="M258.913 219.86C256.804 219.86 254.845 219.484 253.042 218.739C251.239 217.994 249.796 216.826 248.718 215.24C247.639 213.654 247.1 211.651 247.1 209.225C247.1 205.726 248.268 203.014 250.616 201.076C252.958 199.139 256.499 198.173 261.231 198.173H269.874V197.541C269.874 196.236 269.335 195.282 268.257 194.674C267.179 194.066 265.28 193.762 262.566 193.762C258.721 193.762 254.929 194.346 251.179 195.509V187.604C252.869 186.955 254.977 186.406 257.505 185.959C260.033 185.518 262.614 185.297 265.238 185.297C270.533 185.297 274.726 186.37 277.817 188.516C280.908 190.662 282.453 194.066 282.453 198.728V219.15H270.928L270.294 216.492C269.119 217.517 267.61 218.334 265.759 218.942C263.914 219.556 261.632 219.86 258.913 219.86ZM263.411 212.164C264.908 212.164 266.184 211.908 267.245 211.395C268.299 210.882 269.179 210.25 269.88 209.505V205.38H263.483C260.578 205.38 259.128 206.525 259.128 208.808C259.122 211.043 260.554 212.164 263.411 212.164Z" fill="#F5F5F5"></path><path d="M74.5889 261.814C71.6538 261.814 69.2219 261.259 67.2931 260.151C65.3584 259.042 63.9148 257.486 62.9564 255.477C61.998 253.468 61.5188 251.12 61.5188 248.425C61.5188 245.48 61.9681 242.911 62.8725 240.724C63.777 238.536 65.1847 236.843 67.1015 235.651C69.0183 234.458 71.5041 233.862 74.547 233.862C76.1284 233.862 77.56 233.976 78.8418 234.202C80.1237 234.429 81.3277 234.733 82.4598 235.126V238.154C81.3337 237.731 80.1357 237.403 78.8658 237.165C77.5959 236.926 76.2542 236.807 74.8465 236.807C72.3906 236.807 70.4499 237.272 69.0063 238.196C67.5627 239.12 66.5384 240.455 65.9155 242.196C65.2925 243.937 64.987 246.011 64.987 248.425C64.987 251.763 65.7597 254.339 67.3111 256.151C68.8625 257.963 71.3603 258.869 74.7986 258.869C76.0086 258.869 77.1826 258.768 78.3087 258.571C79.4348 258.374 80.4352 258.106 81.3097 257.772V249.141H74.0319V246.78H84.3107V259.662C83.49 260.192 82.304 260.687 80.7347 261.134C79.1653 261.581 77.1287 261.814 74.5889 261.814Z" fill="#F5F5F5"></path><path d="M95.3202 261.397V234.286H107.294C110.229 234.286 112.362 235.043 113.703 236.557C115.045 238.071 115.71 240.122 115.71 242.703C115.71 244.694 115.225 246.351 114.249 247.669C113.278 248.986 111.829 249.874 109.912 250.321C110.475 250.655 110.906 251.043 111.2 251.478C111.493 251.913 111.799 252.497 112.11 253.224L115.662 261.391H112.11L108.642 253.516C108.277 252.676 107.833 252.074 107.312 251.704C106.791 251.341 105.869 251.156 104.539 251.156H98.7884V261.385H95.3202V261.397ZM98.7884 248.467H106.318C108.151 248.467 109.594 248.014 110.655 247.102C111.715 246.19 112.242 244.724 112.242 242.703C112.242 238.912 110.421 237.022 106.785 237.022H98.7884V248.467Z" fill="#F5F5F5"></path><path d="M137.795 261.814C133.536 261.814 130.38 260.699 128.319 258.47C126.259 256.24 125.228 252.694 125.228 247.841C125.228 242.989 126.259 239.442 128.319 237.213C130.38 234.983 133.536 233.863 137.795 233.863C142.084 233.863 145.247 234.977 147.295 237.213C149.338 239.442 150.362 242.989 150.362 247.841C150.362 252.694 149.338 256.24 147.295 258.47C145.247 260.699 142.078 261.814 137.795 261.814ZM137.795 258.869C139.856 258.869 141.551 258.518 142.893 257.814C144.234 257.111 145.235 255.954 145.894 254.339C146.559 252.723 146.888 250.56 146.888 247.835C146.888 245.111 146.559 242.947 145.894 241.332C145.229 239.716 144.228 238.56 142.893 237.856C141.551 237.153 139.856 236.801 137.795 236.801C135.735 236.801 134.039 237.153 132.698 237.856C131.356 238.56 130.356 239.716 129.697 241.332C129.032 242.947 128.702 245.117 128.702 247.835C128.702 250.56 129.032 252.723 129.697 254.339C130.362 255.954 131.362 257.111 132.698 257.814C134.034 258.518 135.735 258.869 137.795 258.869Z" fill="#F5F5F5"></path><path d="M172.609 261.814C168.883 261.814 166.044 260.932 164.085 259.162C162.127 257.391 161.144 254.828 161.144 251.46V234.28H164.612V251.502C164.612 253.97 165.313 255.817 166.709 257.039C168.105 258.261 170.069 258.87 172.609 258.87C175.119 258.87 177.071 258.261 178.467 257.039C179.863 255.817 180.564 253.975 180.564 251.502V234.28H184.032V251.46C184.032 254.828 183.049 257.397 181.091 259.162C179.132 260.932 176.305 261.814 172.609 261.814Z" fill="#F5F5F5"></path><path d="M195.664 261.397V234.286H207.171C210.214 234.286 212.46 235.103 213.898 236.73C215.335 238.357 216.054 240.462 216.054 243.043C216.054 245.683 215.246 247.764 213.622 249.296C211.999 250.828 209.795 251.591 207.003 251.591H199.133V261.403H195.664V261.397ZM199.133 248.891H206.452C208.483 248.891 210.01 248.366 211.041 247.311C212.071 246.256 212.586 244.831 212.586 243.037C212.586 241.129 212.101 239.645 211.125 238.596C210.154 237.541 208.663 237.016 206.662 237.016H199.133V248.891Z" fill="#F5F5F5"></path></svg> 